solid Mesh
  facet normal 0.000000e+000 -1.000000e+000 -0.000000e+000
    outer loop
      vertex   1.748556e+000 -1.000000e+000 4.371391e+000
      vertex   0.000000e+000 -1.000000e+000 0.000000e+000
      vertex   1.775127e+000 -1.000000e+000 4.431932e+000
    endloop
  endfacet
  facet normal 0.000000e+000 -1.000000e+000 -0.000000e+000
    outer loop
      vertex   1.775127e+000 -1.000000e+000 4.431932e+000
      vertex   0.000000e+000 -1.000000e+000 0.000000e+000
      vertex   5.292893e+000 -1.000000e+000 4.707107e+000
    endloop
  endfacet
  facet normal 0.000000e+000 -1.000000e+000 0.000000e+000
    outer loop
      vertex   4.585786e+000 -1.000000e+000 5.000000e+000
      vertex   5.292893e+000 -1.000000e+000 4.707107e+000
      vertex   5.245132e+000 -1.000000e+000 4.751840e+000
    endloop
  endfacet
  facet normal -0.000000e+000 -1.000000e+000 -0.000000e+000
    outer loop
      vertex   5.194548e+000 -1.000000e+000 4.793353e+000
      vertex   4.585786e+000 -1.000000e+000 5.000000e+000
      vertex   5.245132e+000 -1.000000e+000 4.751840e+000
    endloop
  endfacet
  facet normal 0.000000e+000 -1.000000e+000 0.000000e+000
    outer loop
      vertex   5.194548e+000 -1.000000e+000 4.793353e+000
      vertex   5.141357e+000 -1.000000e+000 4.831470e+000
      vertex   4.585786e+000 -1.000000e+000 5.000000e+000
    endloop
  endfacet
  facet normal 0.000000e+000 -1.000000e+000 0.000000e+000
    outer loop
      vertex   4.585786e+000 -1.000000e+000 5.000000e+000
      vertex   5.141357e+000 -1.000000e+000 4.831470e+000
      vertex   5.085786e+000 -1.000000e+000 4.866025e+000
    endloop
  endfacet
  facet normal -0.000000e+000 -1.000000e+000 -0.000000e+000
    outer loop
      vertex   5.028075e+000 -1.000000e+000 4.896873e+000
      vertex   4.585786e+000 -1.000000e+000 5.000000e+000
      vertex   5.085786e+000 -1.000000e+000 4.866025e+000
    endloop
  endfacet
  facet normal 0.000000e+000 -1.000000e+000 0.000000e+000
    outer loop
      vertex   5.028075e+000 -1.000000e+000 4.896873e+000
      vertex   4.968470e+000 -1.000000e+000 4.923880e+000
      vertex   4.585786e+000 -1.000000e+000 5.000000e+000
    endloop
  endfacet
  facet normal 0.000000e+000 -1.000000e+000 0.000000e+000
    outer loop
      vertex   4.585786e+000 -1.000000e+000 5.000000e+000
      vertex   4.968470e+000 -1.000000e+000 4.923880e+000
      vertex   4.907226e+000 -1.000000e+000 4.946930e+000
    endloop
  endfacet
  facet normal -0.000000e+000 -1.000000e+000 -0.000000e+000
    outer loop
      vertex   4.844605e+000 -1.000000e+000 4.965926e+000
      vertex   4.585786e+000 -1.000000e+000 5.000000e+000
      vertex   4.907226e+000 -1.000000e+000 4.946930e+000
    endloop
  endfacet
  facet normal 0.000000e+000 -1.000000e+000 0.000000e+000
    outer loop
      vertex   4.844605e+000 -1.000000e+000 4.965926e+000
      vertex   4.780877e+000 -1.000000e+000 4.980785e+000
      vertex   4.585786e+000 -1.000000e+000 5.000000e+000
    endloop
  endfacet
  facet normal 0.000000e+000 -1.000000e+000 0.000000e+000
    outer loop
      vertex   4.585786e+000 -1.000000e+000 5.000000e+000
      vertex   4.780877e+000 -1.000000e+000 4.980785e+000
      vertex   4.716313e+000 -1.000000e+000 4.991445e+000
    endloop
  endfacet
  facet normal -0.000000e+000 -1.000000e+000 -0.000000e+000
    outer loop
      vertex   4.651190e+000 -1.000000e+000 4.997859e+000
      vertex   4.585786e+000 -1.000000e+000 5.000000e+000
      vertex   4.716313e+000 -1.000000e+000 4.991445e+000
    endloop
  endfacet
  facet normal 0.000000e+000 -1.000000e+000 0.000000e+000
    outer loop
      vertex   0.000000e+000 -1.000000e+000 0.000000e+000
      vertex   1.000000e+001 -1.000000e+000 0.000000e+000
      vertex   5.292893e+000 -1.000000e+000 4.707107e+000
    endloop
  endfacet
  facet normal 0.000000e+000 -1.000000e+000 0.000000e+000
    outer loop
      vertex   1.775127e+000 -1.000000e+000 4.431932e+000
      vertex   5.292893e+000 -1.000000e+000 4.707107e+000
      vertex   4.585786e+000 -1.000000e+000 5.000000e+000
    endloop
  endfacet
  facet normal 0.000000e+000 -1.000000e+000 -0.000000e+000
    outer loop
      vertex   2.677033e+000 -1.000000e+000 5.000000e+000
      vertex   1.775127e+000 -1.000000e+000 4.431932e+000
      vertex   4.585786e+000 -1.000000e+000 5.000000e+000
    endloop
  endfacet
  facet normal 0.000000e+000 -1.000000e+000 0.000000e+000
    outer loop
      vertex   2.677033e+000 -1.000000e+000 5.000000e+000
      vertex   1.805640e+000 -1.000000e+000 4.490585e+000
      vertex   1.775127e+000 -1.000000e+000 4.431932e+000
    endloop
  endfacet
  facet normal 0.000000e+000 -1.000000e+000 0.000000e+000
    outer loop
      vertex   2.677033e+000 -1.000000e+000 5.000000e+000
      vertex   1.839961e+000 -1.000000e+000 4.547093e+000
      vertex   1.805640e+000 -1.000000e+000 4.490585e+000
    endloop
  endfacet
  facet normal 0.000000e+000 -1.000000e+000 0.000000e+000
    outer loop
      vertex   2.677033e+000 -1.000000e+000 5.000000e+000
      vertex   1.877942e+000 -1.000000e+000 4.601211e+000
      vertex   1.839961e+000 -1.000000e+000 4.547093e+000
    endloop
  endfacet
  facet normal 0.000000e+000 -1.000000e+000 0.000000e+000
    outer loop
      vertex   2.677033e+000 -1.000000e+000 5.000000e+000
      vertex   1.919416e+000 -1.000000e+000 4.652700e+000
      vertex   1.877942e+000 -1.000000e+000 4.601211e+000
    endloop
  endfacet
  facet normal 0.000000e+000 -1.000000e+000 0.000000e+000
    outer loop
      vertex   2.677033e+000 -1.000000e+000 5.000000e+000
      vertex   1.964202e+000 -1.000000e+000 4.701336e+000
      vertex   1.919416e+000 -1.000000e+000 4.652700e+000
    endloop
  endfacet
  facet normal 0.000000e+000 -1.000000e+000 0.000000e+000
    outer loop
      vertex   2.677033e+000 -1.000000e+000 5.000000e+000
      vertex   2.012103e+000 -1.000000e+000 4.746906e+000
      vertex   1.964202e+000 -1.000000e+000 4.701336e+000
    endloop
  endfacet
  facet normal 0.000000e+000 -1.000000e+000 0.000000e+000
    outer loop
      vertex   2.677033e+000 -1.000000e+000 5.000000e+000
      vertex   2.062912e+000 -1.000000e+000 4.789212e+000
      vertex   2.012103e+000 -1.000000e+000 4.746906e+000
    endloop
  endfacet
  facet normal 0.000000e+000 -1.000000e+000 0.000000e+000
    outer loop
      vertex   2.677033e+000 -1.000000e+000 5.000000e+000
      vertex   2.116404e+000 -1.000000e+000 4.828067e+000
      vertex   2.062912e+000 -1.000000e+000 4.789212e+000
    endloop
  endfacet
  facet normal 0.000000e+000 -1.000000e+000 0.000000e+000
    outer loop
      vertex   2.677033e+000 -1.000000e+000 5.000000e+000
      vertex   2.172347e+000 -1.000000e+000 4.863303e+000
      vertex   2.116404e+000 -1.000000e+000 4.828067e+000
    endloop
  endfacet
  facet normal 0.000000e+000 -1.000000e+000 0.000000e+000
    outer loop
      vertex   2.677033e+000 -1.000000e+000 5.000000e+000
      vertex   2.230497e+000 -1.000000e+000 4.894766e+000
      vertex   2.172347e+000 -1.000000e+000 4.863303e+000
    endloop
  endfacet
  facet normal 0.000000e+000 -1.000000e+000 0.000000e+000
    outer loop
      vertex   2.677033e+000 -1.000000e+000 5.000000e+000
      vertex   2.290598e+000 -1.000000e+000 4.922317e+000
      vertex   2.230497e+000 -1.000000e+000 4.894766e+000
    endloop
  endfacet
  facet normal 0.000000e+000 -1.000000e+000 0.000000e+000
    outer loop
      vertex   2.677033e+000 -1.000000e+000 5.000000e+000
      vertex   2.352388e+000 -1.000000e+000 4.945836e+000
      vertex   2.290598e+000 -1.000000e+000 4.922317e+000
    endloop
  endfacet
  facet normal 0.000000e+000 -1.000000e+000 0.000000e+000
    outer loop
      vertex   2.677033e+000 -1.000000e+000 5.000000e+000
      vertex   2.415598e+000 -1.000000e+000 4.965221e+000
      vertex   2.352388e+000 -1.000000e+000 4.945836e+000
    endloop
  endfacet
  facet normal 0.000000e+000 -1.000000e+000 0.000000e+000
    outer loop
      vertex   2.677033e+000 -1.000000e+000 5.000000e+000
      vertex   2.479950e+000 -1.000000e+000 4.980387e+000
      vertex   2.415598e+000 -1.000000e+000 4.965221e+000
    endloop
  endfacet
  facet normal 0.000000e+000 -1.000000e+000 0.000000e+000
    outer loop
      vertex   2.677033e+000 -1.000000e+000 5.000000e+000
      vertex   2.545164e+000 -1.000000e+000 4.991267e+000
      vertex   2.479950e+000 -1.000000e+000 4.980387e+000
    endloop
  endfacet
  facet normal 0.000000e+000 -1.000000e+000 0.000000e+000
    outer loop
      vertex   2.677033e+000 -1.000000e+000 5.000000e+000
      vertex   2.610954e+000 -1.000000e+000 4.997814e+000
      vertex   2.545164e+000 -1.000000e+000 4.991267e+000
    endloop
  endfacet
  facet normal 7.071068e-001 0.000000e+000 7.071068e-001
    outer loop
      vertex   1.000000e+001 1.000000e+000 0.000000e+000
      vertex   5.292893e+000 1.000000e+000 4.707107e+000
      vertex   1.000000e+001 -1.000000e+000 0.000000e+000
    endloop
  endfacet
  facet normal 7.071068e-001 0.000000e+000 7.071068e-001
    outer loop
      vertex   1.000000e+001 -1.000000e+000 0.000000e+000
      vertex   5.292893e+000 1.000000e+000 4.707107e+000
      vertex   5.292893e+000 -1.000000e+000 4.707107e+000
    endloop
  endfacet
  facet normal 6.891622e-001 -0.000000e+000 7.246071e-001
    outer loop
      vertex   5.292893e+000 -1.000000e+000 4.707107e+000
      vertex   5.292893e+000 1.000000e+000 4.707107e+000
      vertex   5.256571e+000 0.000000e+000 4.741652e+000
    endloop
  endfacet
  facet normal 6.456278e-001 3.945787e-004 7.636521e-001
    outer loop
      vertex   5.245132e+000 -1.000000e+000 4.751840e+000
      vertex   5.256571e+000 0.000000e+000 4.741652e+000
      vertex   5.205536e+000 0.000000e+000 4.784799e+000
    endloop
  endfacet
  facet normal 5.931797e-001 3.684011e-004 8.050700e-001
    outer loop
      vertex   5.194548e+000 -1.000000e+000 4.793353e+000
      vertex   5.205536e+000 0.000000e+000 4.784799e+000
      vertex   5.151734e+000 0.000000e+000 4.824442e+000
    endloop
  endfacet
  facet normal 5.380823e-001 3.402847e-004 8.428922e-001
    outer loop
      vertex   5.141357e+000 -1.000000e+000 4.831470e+000
      vertex   5.151734e+000 0.000000e+000 4.824442e+000
      vertex   5.095403e+000 0.000000e+000 4.860402e+000
    endloop
  endfacet
  facet normal 4.805817e-001 3.102295e-004 8.769499e-001
    outer loop
      vertex   5.085786e+000 -1.000000e+000 4.866025e+000
      vertex   5.095403e+000 0.000000e+000 4.860402e+000
      vertex   5.036797e+000 0.000000e+000 4.892519e+000
    endloop
  endfacet
  facet normal 4.209347e-001 2.782356e-004 9.070909e-001
    outer loop
      vertex   5.028075e+000 -1.000000e+000 4.896873e+000
      vertex   5.036797e+000 0.000000e+000 4.892519e+000
      vertex   4.976176e+000 0.000000e+000 4.920650e+000
    endloop
  endfacet
  facet normal 3.594078e-001 2.443031e-004 9.331806e-001
    outer loop
      vertex   4.968470e+000 -1.000000e+000 4.923880e+000
      vertex   4.976176e+000 0.000000e+000 4.920650e+000
      vertex   4.913811e+000 0.000000e+000 4.944669e+000
    endloop
  endfacet
  facet normal 2.962756e-001 2.084319e-004 9.551025e-001
    outer loop
      vertex   4.907226e+000 -1.000000e+000 4.946930e+000
      vertex   4.913811e+000 0.000000e+000 4.944669e+000
      vertex   4.849982e+000 0.000000e+000 4.964469e+000
    endloop
  endfacet
  facet normal 2.318201e-001 1.706223e-004 9.727586e-001
    outer loop
      vertex   4.844605e+000 -1.000000e+000 4.965926e+000
      vertex   4.849982e+000 0.000000e+000 4.964469e+000
      vertex   4.784972e+000 0.000000e+000 4.979962e+000
    endloop
  endfacet
  facet normal 1.663294e-001 1.308742e-004 9.860702e-001
    outer loop
      vertex   4.780877e+000 -1.000000e+000 4.980785e+000
      vertex   4.784972e+000 0.000000e+000 4.979962e+000
      vertex   4.719073e+000 0.000000e+000 4.991077e+000
    endloop
  endfacet
  facet normal 1.000957e-001 8.918771e-005 9.949778e-001
    outer loop
      vertex   4.716313e+000 -1.000000e+000 4.991445e+000
      vertex   4.719073e+000 0.000000e+000 4.991077e+000
      vertex   4.652579e+000 0.000000e+000 4.997767e+000
    endloop
  endfacet
  facet normal 3.271908e-002 4.653202e-005 9.994646e-001
    outer loop
      vertex   4.651190e+000 -1.000000e+000 4.997859e+000
      vertex   4.652579e+000 0.000000e+000 4.997767e+000
      vertex   4.585786e+000 -1.000000e+000 5.000000e+000
    endloop
  endfacet
  facet normal 9.801714e-002 -4.459386e-005 9.951847e-001
    outer loop
      vertex   4.651190e+000 -1.000000e+000 4.997859e+000
      vertex   4.716313e+000 -1.000000e+000 4.991445e+000
      vertex   4.652579e+000 0.000000e+000 4.997767e+000
    endloop
  endfacet
  facet normal 6.343932e-001 3.587085e-004 7.730104e-001
    outer loop
      vertex   5.194548e+000 1.000000e+000 4.793353e+000
      vertex   5.205536e+000 0.000000e+000 4.784799e+000
      vertex   5.245132e+000 1.000000e+000 4.751840e+000
    endloop
  endfacet
  facet normal 5.931797e-001 -3.684011e-004 8.050700e-001
    outer loop
      vertex   5.194548e+000 1.000000e+000 4.793353e+000
      vertex   5.151734e+000 0.000000e+000 4.824442e+000
      vertex   5.205536e+000 0.000000e+000 4.784799e+000
    endloop
  endfacet
  facet normal 5.824777e-001 3.315615e-004 8.128466e-001
    outer loop
      vertex   5.194548e+000 1.000000e+000 4.793353e+000
      vertex   5.141357e+000 1.000000e+000 4.831470e+000
      vertex   5.151734e+000 0.000000e+000 4.824442e+000
    endloop
  endfacet
  facet normal 5.380823e-001 -3.402847e-004 8.428922e-001
    outer loop
      vertex   5.151734e+000 0.000000e+000 4.824442e+000
      vertex   5.141357e+000 1.000000e+000 4.831470e+000
      vertex   5.095403e+000 0.000000e+000 4.860402e+000
    endloop
  endfacet
  facet normal 5.280678e-001 3.024757e-004 8.492021e-001
    outer loop
      vertex   5.095403e+000 0.000000e+000 4.860402e+000
      vertex   5.141357e+000 1.000000e+000 4.831470e+000
      vertex   5.085786e+000 1.000000e+000 4.866025e+000
    endloop
  endfacet
  facet normal 4.713967e-001 2.714512e-004 8.819212e-001
    outer loop
      vertex   5.036797e+000 0.000000e+000 4.892519e+000
      vertex   5.085786e+000 1.000000e+000 4.866025e+000
      vertex   5.028075e+000 1.000000e+000 4.896873e+000
    endloop
  endfacet
  facet normal 4.127070e-001 2.384879e-004 9.108638e-001
    outer loop
      vertex   4.976176e+000 0.000000e+000 4.920650e+000
      vertex   5.028075e+000 1.000000e+000 4.896873e+000
      vertex   4.968470e+000 1.000000e+000 4.923880e+000
    endloop
  endfacet
  facet normal 3.522500e-001 2.035861e-004 9.359059e-001
    outer loop
      vertex   4.913811e+000 0.000000e+000 4.944669e+000
      vertex   4.968470e+000 1.000000e+000 4.923880e+000
      vertex   4.907226e+000 1.000000e+000 4.946930e+000
    endloop
  endfacet
  facet normal 2.902847e-001 1.667457e-004 9.569403e-001
    outer loop
      vertex   4.849982e+000 0.000000e+000 4.964469e+000
      vertex   4.907226e+000 1.000000e+000 4.946930e+000
      vertex   4.844605e+000 1.000000e+000 4.965926e+000
    endloop
  endfacet
  facet normal 2.270763e-001 1.279668e-004 9.738770e-001
    outer loop
      vertex   4.784972e+000 0.000000e+000 4.979962e+000
      vertex   4.844605e+000 1.000000e+000 4.965926e+000
      vertex   4.780877e+000 1.000000e+000 4.980785e+000
    endloop
  endfacet
  facet normal 1.628955e-001 8.724948e-005 9.866433e-001
    outer loop
      vertex   4.719073e+000 0.000000e+000 4.991077e+000
      vertex   4.780877e+000 1.000000e+000 4.980785e+000
      vertex   4.716313e+000 1.000000e+000 4.991445e+000
    endloop
  endfacet
  facet normal 9.801714e-002 4.459386e-005 9.951847e-001
    outer loop
      vertex   4.652579e+000 0.000000e+000 4.997767e+000
      vertex   4.716313e+000 1.000000e+000 4.991445e+000
      vertex   4.651190e+000 1.000000e+000 4.997859e+000
    endloop
  endfacet
  facet normal 3.271908e-002 0.000000e+000 9.994646e-001
    outer loop
      vertex   4.585786e+000 -1.000000e+000 5.000000e+000
      vertex   4.651190e+000 1.000000e+000 4.997859e+000
      vertex   4.585786e+000 1.000000e+000 5.000000e+000
    endloop
  endfacet
  facet normal 3.408246e-002 -4.463341e-005 9.994190e-001
    outer loop
      vertex   4.585786e+000 -1.000000e+000 5.000000e+000
      vertex   4.652579e+000 0.000000e+000 4.997767e+000
      vertex   4.651190e+000 1.000000e+000 4.997859e+000
    endloop
  endfacet
  facet normal 4.805817e-001 -3.102295e-004 8.769499e-001
    outer loop
      vertex   5.095403e+000 0.000000e+000 4.860402e+000
      vertex   5.085786e+000 1.000000e+000 4.866025e+000
      vertex   5.036797e+000 0.000000e+000 4.892519e+000
    endloop
  endfacet
  facet normal 4.209347e-001 -2.782356e-004 9.070909e-001
    outer loop
      vertex   5.036797e+000 0.000000e+000 4.892519e+000
      vertex   5.028075e+000 1.000000e+000 4.896873e+000
      vertex   4.976176e+000 0.000000e+000 4.920650e+000
    endloop
  endfacet
  facet normal 3.594078e-001 -2.443031e-004 9.331806e-001
    outer loop
      vertex   4.976176e+000 0.000000e+000 4.920650e+000
      vertex   4.968470e+000 1.000000e+000 4.923880e+000
      vertex   4.913811e+000 0.000000e+000 4.944669e+000
    endloop
  endfacet
  facet normal 2.962756e-001 -2.084319e-004 9.551025e-001
    outer loop
      vertex   4.913811e+000 0.000000e+000 4.944669e+000
      vertex   4.907226e+000 1.000000e+000 4.946930e+000
      vertex   4.849982e+000 0.000000e+000 4.964469e+000
    endloop
  endfacet
  facet normal 2.318201e-001 -1.706223e-004 9.727586e-001
    outer loop
      vertex   4.849982e+000 0.000000e+000 4.964469e+000
      vertex   4.844605e+000 1.000000e+000 4.965926e+000
      vertex   4.784972e+000 0.000000e+000 4.979962e+000
    endloop
  endfacet
  facet normal 1.663294e-001 -1.308742e-004 9.860702e-001
    outer loop
      vertex   4.784972e+000 0.000000e+000 4.979962e+000
      vertex   4.780877e+000 1.000000e+000 4.980785e+000
      vertex   4.719073e+000 0.000000e+000 4.991077e+000
    endloop
  endfacet
  facet normal 1.000957e-001 -8.918771e-005 9.949778e-001
    outer loop
      vertex   4.719073e+000 0.000000e+000 4.991077e+000
      vertex   4.716313e+000 1.000000e+000 4.991445e+000
      vertex   4.652579e+000 0.000000e+000 4.997767e+000
    endloop
  endfacet
  facet normal 1.628955e-001 -8.724948e-005 9.866433e-001
    outer loop
      vertex   4.716313e+000 -1.000000e+000 4.991445e+000
      vertex   4.780877e+000 -1.000000e+000 4.980785e+000
      vertex   4.719073e+000 0.000000e+000 4.991077e+000
    endloop
  endfacet
  facet normal 2.270763e-001 -1.279668e-004 9.738770e-001
    outer loop
      vertex   4.780877e+000 -1.000000e+000 4.980785e+000
      vertex   4.844605e+000 -1.000000e+000 4.965926e+000
      vertex   4.784972e+000 0.000000e+000 4.979962e+000
    endloop
  endfacet
  facet normal 2.902847e-001 -1.667457e-004 9.569403e-001
    outer loop
      vertex   4.844605e+000 -1.000000e+000 4.965926e+000
      vertex   4.907226e+000 -1.000000e+000 4.946930e+000
      vertex   4.849982e+000 0.000000e+000 4.964469e+000
    endloop
  endfacet
  facet normal 3.522500e-001 -2.035861e-004 9.359059e-001
    outer loop
      vertex   4.907226e+000 -1.000000e+000 4.946930e+000
      vertex   4.968470e+000 -1.000000e+000 4.923880e+000
      vertex   4.913811e+000 0.000000e+000 4.944669e+000
    endloop
  endfacet
  facet normal 4.127070e-001 -2.384879e-004 9.108638e-001
    outer loop
      vertex   4.968470e+000 -1.000000e+000 4.923880e+000
      vertex   5.028075e+000 -1.000000e+000 4.896873e+000
      vertex   4.976176e+000 0.000000e+000 4.920650e+000
    endloop
  endfacet
  facet normal 4.713967e-001 -2.714512e-004 8.819212e-001
    outer loop
      vertex   5.028075e+000 -1.000000e+000 4.896873e+000
      vertex   5.085786e+000 -1.000000e+000 4.866025e+000
      vertex   5.036797e+000 0.000000e+000 4.892519e+000
    endloop
  endfacet
  facet normal 5.280678e-001 -3.024757e-004 8.492021e-001
    outer loop
      vertex   5.085786e+000 -1.000000e+000 4.866025e+000
      vertex   5.141357e+000 -1.000000e+000 4.831470e+000
      vertex   5.095403e+000 0.000000e+000 4.860402e+000
    endloop
  endfacet
  facet normal 5.824777e-001 -3.315615e-004 8.128466e-001
    outer loop
      vertex   5.141357e+000 -1.000000e+000 4.831470e+000
      vertex   5.194548e+000 -1.000000e+000 4.793353e+000
      vertex   5.151734e+000 0.000000e+000 4.824442e+000
    endloop
  endfacet
  facet normal 6.343932e-001 -3.587085e-004 7.730104e-001
    outer loop
      vertex   5.194548e+000 -1.000000e+000 4.793353e+000
      vertex   5.245132e+000 -1.000000e+000 4.751840e+000
      vertex   5.205536e+000 0.000000e+000 4.784799e+000
    endloop
  endfacet
  facet normal 6.835923e-001 -3.839167e-004 7.298640e-001
    outer loop
      vertex   5.245132e+000 -1.000000e+000 4.751840e+000
      vertex   5.292893e+000 -1.000000e+000 4.707107e+000
      vertex   5.256571e+000 0.000000e+000 4.741652e+000
    endloop
  endfacet
  facet normal 6.456278e-001 -3.945787e-004 7.636521e-001
    outer loop
      vertex   5.245132e+000 1.000000e+000 4.751840e+000
      vertex   5.205536e+000 0.000000e+000 4.784799e+000
      vertex   5.256571e+000 0.000000e+000 4.741652e+000
    endloop
  endfacet
  facet normal 6.835923e-001 3.839167e-004 7.298640e-001
    outer loop
      vertex   5.292893e+000 1.000000e+000 4.707107e+000
      vertex   5.245132e+000 1.000000e+000 4.751840e+000
      vertex   5.256571e+000 0.000000e+000 4.741652e+000
    endloop
  endfacet
  facet normal -4.653186e-016 0.000000e+000 1.000000e+000
    outer loop
      vertex   4.585786e+000 1.000000e+000 5.000000e+000
      vertex   2.677033e+000 1.000000e+000 5.000000e+000
      vertex   4.585786e+000 -1.000000e+000 5.000000e+000
    endloop
  endfacet
  facet normal -4.653186e-016 0.000000e+000 1.000000e+000
    outer loop
      vertex   4.585786e+000 -1.000000e+000 5.000000e+000
      vertex   2.677033e+000 1.000000e+000 5.000000e+000
      vertex   2.677033e+000 -1.000000e+000 5.000000e+000
    endloop
  endfacet
  facet normal -2.698133e-002 0.000000e+000 9.996359e-001
    outer loop
      vertex   2.677033e+000 -1.000000e+000 5.000000e+000
      vertex   2.677033e+000 1.000000e+000 5.000000e+000
      vertex   2.623090e+000 1.221245e-015 4.998544e+000
    endloop
  endfacet
  facet normal -8.727920e-002 3.323833e-004 9.961838e-001
    outer loop
      vertex   2.610954e+000 -1.000000e+000 4.997814e+000
      vertex   2.623090e+000 1.221245e-015 4.998544e+000
      vertex   2.556515e+000 1.221245e-015 4.992711e+000
    endloop
  endfacet
  facet normal -1.536220e-001 3.169218e-004 9.881296e-001
    outer loop
      vertex   2.545164e+000 -1.000000e+000 4.991267e+000
      vertex   2.556515e+000 1.221245e-015 4.992711e+000
      vertex   2.490478e+000 1.221245e-015 4.982445e+000
    endloop
  endfacet
  facet normal -2.192788e-001 3.009490e-004 9.756622e-001
    outer loop
      vertex   2.479950e+000 -1.000000e+000 4.980387e+000
      vertex   2.490478e+000 1.221245e-015 4.982445e+000
      vertex   2.425275e+000 1.221245e-015 4.967790e+000
    endloop
  endfacet
  facet normal -2.839561e-001 2.844648e-004 9.588372e-001
    outer loop
      vertex   2.415598e+000 -1.000000e+000 4.965221e+000
      vertex   2.425275e+000 1.221245e-015 4.967790e+000
      vertex   2.361196e+000 1.221245e-015 4.948813e+000
    endloop
  endfacet
  facet normal -3.473653e-001 2.674693e-004 9.377299e-001
    outer loop
      vertex   2.352388e+000 -1.000000e+000 4.945836e+000
      vertex   2.361196e+000 1.221245e-015 4.948813e+000
      vertex   2.298527e+000 1.221245e-015 4.925599e+000
    endloop
  endfacet
  facet normal -4.092230e-001 2.499624e-004 9.124344e-001
    outer loop
      vertex   2.290598e+000 -1.000000e+000 4.922317e+000
      vertex   2.298527e+000 1.221245e-015 4.925599e+000
      vertex   2.237549e+000 1.221245e-015 4.898251e+000
    endloop
  endfacet
  facet normal -4.692531e-001 2.319443e-004 8.830637e-001
    outer loop
      vertex   2.230497e+000 -1.000000e+000 4.894766e+000
      vertex   2.237549e+000 1.221245e-015 4.898251e+000
      vertex   2.178534e+000 1.221245e-015 4.866891e+000
    endloop
  endfacet
  facet normal -5.271873e-001 2.134148e-004 8.497491e-001
    outer loop
      vertex   2.172347e+000 -1.000000e+000 4.863303e+000
      vertex   2.178534e+000 1.221245e-015 4.866891e+000
      vertex   2.121746e+000 1.221245e-015 4.831659e+000
    endloop
  endfacet
  facet normal -5.827670e-001 1.943740e-004 8.126392e-001
    outer loop
      vertex   2.116404e+000 -1.000000e+000 4.828067e+000
      vertex   2.121746e+000 1.221245e-015 4.831659e+000
      vertex   2.067437e+000 1.221245e-015 4.792712e+000
    endloop
  endfacet
  facet normal -6.357440e-001 1.748219e-004 7.719000e-001
    outer loop
      vertex   2.062912e+000 -1.000000e+000 4.789212e+000
      vertex   2.067437e+000 1.221245e-015 4.792712e+000
      vertex   2.015851e+000 1.221245e-015 4.750226e+000
    endloop
  endfacet
  facet normal -6.858815e-001 1.547586e-004 7.277132e-001
    outer loop
      vertex   2.012103e+000 -1.000000e+000 4.746906e+000
      vertex   2.015851e+000 1.221245e-015 4.750226e+000
      vertex   1.967218e+000 1.221245e-015 4.704388e+000
    endloop
  endfacet
  facet normal -7.329557e-001 1.341839e-004 6.802763e-001
    outer loop
      vertex   1.964202e+000 -1.000000e+000 4.701336e+000
      vertex   1.967218e+000 1.221245e-015 4.704388e+000
      vertex   1.921755e+000 1.221245e-015 4.655405e+000
    endloop
  endfacet
  facet normal -7.767564e-001 1.130980e-004 6.298011e-001
    outer loop
      vertex   1.919416e+000 -1.000000e+000 4.652700e+000
      vertex   1.921755e+000 1.221245e-015 4.655405e+000
      vertex   1.879666e+000 1.221245e-015 4.603494e+000
    endloop
  endfacet
  facet normal -8.170879e-001 9.150088e-005 5.765131e-001
    outer loop
      vertex   1.877942e+000 -1.000000e+000 4.601211e+000
      vertex   1.879666e+000 1.221245e-015 4.603494e+000
      vertex   1.841137e+000 1.221245e-015 4.548888e+000
    endloop
  endfacet
  facet normal -8.537701e-001 6.939249e-005 5.206502e-001
    outer loop
      vertex   1.839961e+000 -1.000000e+000 4.547093e+000
      vertex   1.841137e+000 1.221245e-015 4.548888e+000
      vertex   1.806342e+000 1.221245e-015 4.491831e+000
    endloop
  endfacet
  facet normal -8.866391e-001 4.677287e-005 4.624620e-001
    outer loop
      vertex   1.805640e+000 -1.000000e+000 4.490585e+000
      vertex   1.806342e+000 1.221245e-015 4.491831e+000
      vertex   1.775436e+000 1.221245e-015 4.432577e+000
    endloop
  endfacet
  facet normal -9.156920e-001 2.389764e-005 4.018809e-001
    outer loop
      vertex   1.775127e+000 -1.000000e+000 4.431932e+000
      vertex   1.775436e+000 1.221245e-015 4.432577e+000
      vertex   1.748556e+000 -1.000000e+000 4.371391e+000
    endloop
  endfacet
  facet normal -8.871347e-001 -2.338644e-005 4.615106e-001
    outer loop
      vertex   1.775127e+000 -1.000000e+000 4.431932e+000
      vertex   1.805640e+000 -1.000000e+000 4.490585e+000
      vertex   1.775436e+000 1.221245e-015 4.432577e+000
    endloop
  endfacet
  facet normal -9.902825e-002 3.128316e-004 9.950846e-001
    outer loop
      vertex   2.545164e+000 1.000000e+000 4.991267e+000
      vertex   2.556515e+000 1.221245e-015 4.992711e+000
      vertex   2.610954e+000 1.000000e+000 4.997814e+000
    endloop
  endfacet
  facet normal -1.536220e-001 -3.169218e-004 9.881296e-001
    outer loop
      vertex   2.545164e+000 1.000000e+000 4.991267e+000
      vertex   2.490478e+000 1.221245e-015 4.982445e+000
      vertex   2.556515e+000 1.221245e-015 4.992711e+000
    endloop
  endfacet
  facet normal -1.645660e-001 2.971144e-004 9.863660e-001
    outer loop
      vertex   2.545164e+000 1.000000e+000 4.991267e+000
      vertex   2.479950e+000 1.000000e+000 4.980387e+000
      vertex   2.490478e+000 1.221245e-015 4.982445e+000
    endloop
  endfacet
  facet normal -2.192788e-001 -3.009490e-004 9.756622e-001
    outer loop
      vertex   2.490478e+000 1.221245e-015 4.982445e+000
      vertex   2.479950e+000 1.000000e+000 4.980387e+000
      vertex   2.425275e+000 1.221245e-015 4.967790e+000
    endloop
  endfacet
  facet normal -2.293845e-001 2.808859e-004 9.733359e-001
    outer loop
      vertex   2.425275e+000 1.221245e-015 4.967790e+000
      vertex   2.479950e+000 1.000000e+000 4.980387e+000
      vertex   2.415598e+000 1.000000e+000 4.965221e+000
    endloop
  endfacet
  facet normal -2.932002e-001 2.641461e-004 9.560510e-001
    outer loop
      vertex   2.361196e+000 1.221245e-015 4.948813e+000
      vertex   2.415598e+000 1.000000e+000 4.965221e+000
      vertex   2.352388e+000 1.000000e+000 4.945836e+000
    endloop
  endfacet
  facet normal -3.557343e-001 2.468949e-004 9.345871e-001
    outer loop
      vertex   2.298527e+000 1.221245e-015 4.925599e+000
      vertex   2.352388e+000 1.000000e+000 4.945836e+000
      vertex   2.290598e+000 1.000000e+000 4.922317e+000
    endloop
  endfacet
  facet normal -4.167135e-001 2.291324e-004 9.090379e-001
    outer loop
      vertex   2.237549e+000 1.221245e-015 4.898251e+000
      vertex   2.290598e+000 1.000000e+000 4.922317e+000
      vertex   2.230497e+000 1.000000e+000 4.894766e+000
    endloop
  endfacet
  facet normal -4.758710e-001 2.108585e-004 8.795150e-001
    outer loop
      vertex   2.178534e+000 1.221245e-015 4.866891e+000
      vertex   2.230497e+000 1.000000e+000 4.894766e+000
      vertex   2.172347e+000 1.000000e+000 4.863303e+000
    endloop
  endfacet
  facet normal -5.329485e-001 1.920734e-004 8.461477e-001
    outer loop
      vertex   2.121746e+000 1.221245e-015 4.831659e+000
      vertex   2.172347e+000 1.000000e+000 4.863303e+000
      vertex   2.116404e+000 1.000000e+000 4.828067e+000
    endloop
  endfacet
  facet normal -5.876963e-001 1.727770e-004 8.090816e-001
    outer loop
      vertex   2.067437e+000 1.221245e-015 4.792712e+000
      vertex   2.116404e+000 1.000000e+000 4.828067e+000
      vertex   2.062912e+000 1.000000e+000 4.789212e+000
    endloop
  endfacet
  facet normal -6.398752e-001 1.529692e-004 7.684789e-001
    outer loop
      vertex   2.015851e+000 1.221245e-015 4.750226e+000
      vertex   2.062912e+000 1.000000e+000 4.789212e+000
      vertex   2.012103e+000 1.000000e+000 4.746906e+000
    endloop
  endfacet
  facet normal -6.892570e-001 1.326502e-004 7.245169e-001
    outer loop
      vertex   1.967218e+000 1.221245e-015 4.704388e+000
      vertex   2.012103e+000 1.000000e+000 4.746906e+000
      vertex   1.964202e+000 1.000000e+000 4.701336e+000
    endloop
  endfacet
  facet normal -7.356259e-001 1.118200e-004 6.773880e-001
    outer loop
      vertex   1.921755e+000 1.221245e-015 4.655405e+000
      vertex   1.964202e+000 1.000000e+000 4.701336e+000
      vertex   1.919416e+000 1.000000e+000 4.652700e+000
    endloop
  endfacet
  facet normal -7.787793e-001 9.047844e-005 6.272980e-001
    outer loop
      vertex   1.879666e+000 1.221245e-015 4.603494e+000
      vertex   1.919416e+000 1.000000e+000 4.652700e+000
      vertex   1.877942e+000 1.000000e+000 4.601211e+000
    endloop
  endfacet
  facet normal -8.185284e-001 6.862567e-005 5.744660e-001
    outer loop
      vertex   1.841137e+000 1.221245e-015 4.548888e+000
      vertex   1.877942e+000 1.000000e+000 4.601211e+000
      vertex   1.839961e+000 1.000000e+000 4.547093e+000
    endloop
  endfacet
  facet normal -8.546996e-001 4.626167e-005 5.191229e-001
    outer loop
      vertex   1.806342e+000 1.221245e-015 4.491831e+000
      vertex   1.839961e+000 1.000000e+000 4.547093e+000
      vertex   1.805640e+000 1.000000e+000 4.490585e+000
    endloop
  endfacet
  facet normal -8.871347e-001 2.338644e-005 4.615106e-001
    outer loop
      vertex   1.775436e+000 1.221245e-015 4.432577e+000
      vertex   1.805640e+000 1.000000e+000 4.490585e+000
      vertex   1.775127e+000 1.000000e+000 4.431932e+000
    endloop
  endfacet
  facet normal -9.156920e-001 0.000000e+000 4.018809e-001
    outer loop
      vertex   1.748556e+000 -1.000000e+000 4.371391e+000
      vertex   1.775127e+000 1.000000e+000 4.431932e+000
      vertex   1.748556e+000 1.000000e+000 4.371391e+000
    endloop
  endfacet
  facet normal -9.154073e-001 -2.339185e-005 4.025287e-001
    outer loop
      vertex   1.748556e+000 -1.000000e+000 4.371391e+000
      vertex   1.775436e+000 1.221245e-015 4.432577e+000
      vertex   1.775127e+000 1.000000e+000 4.431932e+000
    endloop
  endfacet
  facet normal -2.839561e-001 -2.844648e-004 9.588372e-001
    outer loop
      vertex   2.425275e+000 1.221245e-015 4.967790e+000
      vertex   2.415598e+000 1.000000e+000 4.965221e+000
      vertex   2.361196e+000 1.221245e-015 4.948813e+000
    endloop
  endfacet
  facet normal -3.473653e-001 -2.674693e-004 9.377299e-001
    outer loop
      vertex   2.361196e+000 1.221245e-015 4.948813e+000
      vertex   2.352388e+000 1.000000e+000 4.945836e+000
      vertex   2.298527e+000 1.221245e-015 4.925599e+000
    endloop
  endfacet
  facet normal -4.092230e-001 -2.499624e-004 9.124344e-001
    outer loop
      vertex   2.298527e+000 1.221245e-015 4.925599e+000
      vertex   2.290598e+000 1.000000e+000 4.922317e+000
      vertex   2.237549e+000 1.221245e-015 4.898251e+000
    endloop
  endfacet
  facet normal -4.692531e-001 -2.319443e-004 8.830637e-001
    outer loop
      vertex   2.237549e+000 1.221245e-015 4.898251e+000
      vertex   2.230497e+000 1.000000e+000 4.894766e+000
      vertex   2.178534e+000 1.221245e-015 4.866891e+000
    endloop
  endfacet
  facet normal -5.271873e-001 -2.134148e-004 8.497491e-001
    outer loop
      vertex   2.178534e+000 1.221245e-015 4.866891e+000
      vertex   2.172347e+000 1.000000e+000 4.863303e+000
      vertex   2.121746e+000 1.221245e-015 4.831659e+000
    endloop
  endfacet
  facet normal -5.827670e-001 -1.943740e-004 8.126392e-001
    outer loop
      vertex   2.121746e+000 1.221245e-015 4.831659e+000
      vertex   2.116404e+000 1.000000e+000 4.828067e+000
      vertex   2.067437e+000 1.221245e-015 4.792712e+000
    endloop
  endfacet
  facet normal -6.357440e-001 -1.748219e-004 7.719000e-001
    outer loop
      vertex   2.067437e+000 1.221245e-015 4.792712e+000
      vertex   2.062912e+000 1.000000e+000 4.789212e+000
      vertex   2.015851e+000 1.221245e-015 4.750226e+000
    endloop
  endfacet
  facet normal -6.858815e-001 -1.547586e-004 7.277132e-001
    outer loop
      vertex   2.015851e+000 1.221245e-015 4.750226e+000
      vertex   2.012103e+000 1.000000e+000 4.746906e+000
      vertex   1.967218e+000 1.221245e-015 4.704388e+000
    endloop
  endfacet
  facet normal -7.329557e-001 -1.341839e-004 6.802763e-001
    outer loop
      vertex   1.967218e+000 1.221245e-015 4.704388e+000
      vertex   1.964202e+000 1.000000e+000 4.701336e+000
      vertex   1.921755e+000 1.221245e-015 4.655405e+000
    endloop
  endfacet
  facet normal -7.767564e-001 -1.130980e-004 6.298011e-001
    outer loop
      vertex   1.921755e+000 1.221245e-015 4.655405e+000
      vertex   1.919416e+000 1.000000e+000 4.652700e+000
      vertex   1.879666e+000 1.221245e-015 4.603494e+000
    endloop
  endfacet
  facet normal -8.170879e-001 -9.150088e-005 5.765131e-001
    outer loop
      vertex   1.879666e+000 1.221245e-015 4.603494e+000
      vertex   1.877942e+000 1.000000e+000 4.601211e+000
      vertex   1.841137e+000 1.221245e-015 4.548888e+000
    endloop
  endfacet
  facet normal -8.537701e-001 -6.939249e-005 5.206502e-001
    outer loop
      vertex   1.841137e+000 1.221245e-015 4.548888e+000
      vertex   1.839961e+000 1.000000e+000 4.547093e+000
      vertex   1.806342e+000 1.221245e-015 4.491831e+000
    endloop
  endfacet
  facet normal -8.866391e-001 -4.677287e-005 4.624620e-001
    outer loop
      vertex   1.806342e+000 1.221245e-015 4.491831e+000
      vertex   1.805640e+000 1.000000e+000 4.490585e+000
      vertex   1.775436e+000 1.221245e-015 4.432577e+000
    endloop
  endfacet
  facet normal -8.546996e-001 -4.626167e-005 5.191229e-001
    outer loop
      vertex   1.805640e+000 -1.000000e+000 4.490585e+000
      vertex   1.839961e+000 -1.000000e+000 4.547093e+000
      vertex   1.806342e+000 1.221245e-015 4.491831e+000
    endloop
  endfacet
  facet normal -8.185284e-001 -6.862567e-005 5.744660e-001
    outer loop
      vertex   1.839961e+000 -1.000000e+000 4.547093e+000
      vertex   1.877942e+000 -1.000000e+000 4.601211e+000
      vertex   1.841137e+000 1.221245e-015 4.548888e+000
    endloop
  endfacet
  facet normal -7.787793e-001 -9.047844e-005 6.272980e-001
    outer loop
      vertex   1.877942e+000 -1.000000e+000 4.601211e+000
      vertex   1.919416e+000 -1.000000e+000 4.652700e+000
      vertex   1.879666e+000 1.221245e-015 4.603494e+000
    endloop
  endfacet
  facet normal -7.356259e-001 -1.118200e-004 6.773880e-001
    outer loop
      vertex   1.919416e+000 -1.000000e+000 4.652700e+000
      vertex   1.964202e+000 -1.000000e+000 4.701336e+000
      vertex   1.921755e+000 1.221245e-015 4.655405e+000
    endloop
  endfacet
  facet normal -6.892570e-001 -1.326502e-004 7.245169e-001
    outer loop
      vertex   1.964202e+000 -1.000000e+000 4.701336e+000
      vertex   2.012103e+000 -1.000000e+000 4.746906e+000
      vertex   1.967218e+000 1.221245e-015 4.704388e+000
    endloop
  endfacet
  facet normal -6.398752e-001 -1.529692e-004 7.684789e-001
    outer loop
      vertex   2.012103e+000 -1.000000e+000 4.746906e+000
      vertex   2.062912e+000 -1.000000e+000 4.789212e+000
      vertex   2.015851e+000 1.221245e-015 4.750226e+000
    endloop
  endfacet
  facet normal -5.876963e-001 -1.727770e-004 8.090816e-001
    outer loop
      vertex   2.062912e+000 -1.000000e+000 4.789212e+000
      vertex   2.116404e+000 -1.000000e+000 4.828067e+000
      vertex   2.067437e+000 1.221245e-015 4.792712e+000
    endloop
  endfacet
  facet normal -5.329485e-001 -1.920734e-004 8.461477e-001
    outer loop
      vertex   2.116404e+000 -1.000000e+000 4.828067e+000
      vertex   2.172347e+000 -1.000000e+000 4.863303e+000
      vertex   2.121746e+000 1.221245e-015 4.831659e+000
    endloop
  endfacet
  facet normal -4.758710e-001 -2.108585e-004 8.795150e-001
    outer loop
      vertex   2.172347e+000 -1.000000e+000 4.863303e+000
      vertex   2.230497e+000 -1.000000e+000 4.894766e+000
      vertex   2.178534e+000 1.221245e-015 4.866891e+000
    endloop
  endfacet
  facet normal -4.167135e-001 -2.291324e-004 9.090379e-001
    outer loop
      vertex   2.230497e+000 -1.000000e+000 4.894766e+000
      vertex   2.290598e+000 -1.000000e+000 4.922317e+000
      vertex   2.237549e+000 1.221245e-015 4.898251e+000
    endloop
  endfacet
  facet normal -3.557343e-001 -2.468949e-004 9.345871e-001
    outer loop
      vertex   2.290598e+000 -1.000000e+000 4.922317e+000
      vertex   2.352388e+000 -1.000000e+000 4.945836e+000
      vertex   2.298527e+000 1.221245e-015 4.925599e+000
    endloop
  endfacet
  facet normal -2.932002e-001 -2.641461e-004 9.560510e-001
    outer loop
      vertex   2.352388e+000 -1.000000e+000 4.945836e+000
      vertex   2.415598e+000 -1.000000e+000 4.965221e+000
      vertex   2.361196e+000 1.221245e-015 4.948813e+000
    endloop
  endfacet
  facet normal -2.293845e-001 -2.808859e-004 9.733359e-001
    outer loop
      vertex   2.415598e+000 -1.000000e+000 4.965221e+000
      vertex   2.479950e+000 -1.000000e+000 4.980387e+000
      vertex   2.425275e+000 1.221245e-015 4.967790e+000
    endloop
  endfacet
  facet normal -1.645660e-001 -2.971144e-004 9.863660e-001
    outer loop
      vertex   2.479950e+000 -1.000000e+000 4.980387e+000
      vertex   2.545164e+000 -1.000000e+000 4.991267e+000
      vertex   2.490478e+000 1.221245e-015 4.982445e+000
    endloop
  endfacet
  facet normal -9.902825e-002 -3.128316e-004 9.950846e-001
    outer loop
      vertex   2.545164e+000 -1.000000e+000 4.991267e+000
      vertex   2.610954e+000 -1.000000e+000 4.997814e+000
      vertex   2.556515e+000 1.221245e-015 4.992711e+000
    endloop
  endfacet
  facet normal -3.305758e-002 -3.280374e-004 9.994534e-001
    outer loop
      vertex   2.610954e+000 -1.000000e+000 4.997814e+000
      vertex   2.677033e+000 -1.000000e+000 5.000000e+000
      vertex   2.623090e+000 1.221245e-015 4.998544e+000
    endloop
  endfacet
  facet normal -8.727920e-002 -3.323833e-004 9.961838e-001
    outer loop
      vertex   2.610954e+000 1.000000e+000 4.997814e+000
      vertex   2.556515e+000 1.221245e-015 4.992711e+000
      vertex   2.623090e+000 1.221245e-015 4.998544e+000
    endloop
  endfacet
  facet normal -3.305758e-002 3.280374e-004 9.994534e-001
    outer loop
      vertex   2.677033e+000 1.000000e+000 5.000000e+000
      vertex   2.610954e+000 1.000000e+000 4.997814e+000
      vertex   2.623090e+000 1.221245e-015 4.998544e+000
    endloop
  endfacet
  facet normal -9.284767e-001 0.000000e+000 3.713907e-001
    outer loop
      vertex   1.748556e+000 1.000000e+000 4.371391e+000
      vertex   0.000000e+000 1.000000e+000 0.000000e+000
      vertex   1.748556e+000 -1.000000e+000 4.371391e+000
    endloop
  endfacet
  facet normal -9.284767e-001 0.000000e+000 3.713907e-001
    outer loop
      vertex   1.748556e+000 -1.000000e+000 4.371391e+000
      vertex   0.000000e+000 1.000000e+000 0.000000e+000
      vertex   0.000000e+000 -1.000000e+000 0.000000e+000
    endloop
  endfacet
  facet normal 0.000000e+000 -0.000000e+000 -1.000000e+000
    outer loop
      vertex   0.000000e+000 1.000000e+000 0.000000e+000
      vertex   1.000000e+001 1.000000e+000 0.000000e+000
      vertex   0.000000e+000 -1.000000e+000 0.000000e+000
    endloop
  endfacet
  facet normal 0.000000e+000 0.000000e+000 -1.000000e+000
    outer loop
      vertex   0.000000e+000 -1.000000e+000 0.000000e+000
      vertex   1.000000e+001 1.000000e+000 0.000000e+000
      vertex   1.000000e+001 -1.000000e+000 0.000000e+000
    endloop
  endfacet
  facet normal 0.000000e+000 1.000000e+000 -0.000000e+000
    outer loop
      vertex   1.000000e+001 1.000000e+000 0.000000e+000
      vertex   0.000000e+000 1.000000e+000 0.000000e+000
      vertex   5.292893e+000 1.000000e+000 4.707107e+000
    endloop
  endfacet
  facet normal 0.000000e+000 1.000000e+000 -0.000000e+000
    outer loop
      vertex   5.292893e+000 1.000000e+000 4.707107e+000
      vertex   0.000000e+000 1.000000e+000 0.000000e+000
      vertex   1.775127e+000 1.000000e+000 4.431932e+000
    endloop
  endfacet
  facet normal 0.000000e+000 1.000000e+000 -0.000000e+000
    outer loop
      vertex   4.585786e+000 1.000000e+000 5.000000e+000
      vertex   1.775127e+000 1.000000e+000 4.431932e+000
      vertex   2.677033e+000 1.000000e+000 5.000000e+000
    endloop
  endfacet
  facet normal 0.000000e+000 1.000000e+000 0.000000e+000
    outer loop
      vertex   4.585786e+000 1.000000e+000 5.000000e+000
      vertex   5.292893e+000 1.000000e+000 4.707107e+000
      vertex   1.775127e+000 1.000000e+000 4.431932e+000
    endloop
  endfacet
  facet normal 0.000000e+000 1.000000e+000 0.000000e+000
    outer loop
      vertex   4.585786e+000 1.000000e+000 5.000000e+000
      vertex   5.245132e+000 1.000000e+000 4.751840e+000
      vertex   5.292893e+000 1.000000e+000 4.707107e+000
    endloop
  endfacet
  facet normal 0.000000e+000 1.000000e+000 0.000000e+000
    outer loop
      vertex   4.585786e+000 1.000000e+000 5.000000e+000
      vertex   5.194548e+000 1.000000e+000 4.793353e+000
      vertex   5.245132e+000 1.000000e+000 4.751840e+000
    endloop
  endfacet
  facet normal 0.000000e+000 1.000000e+000 0.000000e+000
    outer loop
      vertex   4.585786e+000 1.000000e+000 5.000000e+000
      vertex   5.141357e+000 1.000000e+000 4.831470e+000
      vertex   5.194548e+000 1.000000e+000 4.793353e+000
    endloop
  endfacet
  facet normal 0.000000e+000 1.000000e+000 0.000000e+000
    outer loop
      vertex   4.585786e+000 1.000000e+000 5.000000e+000
      vertex   5.085786e+000 1.000000e+000 4.866025e+000
      vertex   5.141357e+000 1.000000e+000 4.831470e+000
    endloop
  endfacet
  facet normal 0.000000e+000 1.000000e+000 0.000000e+000
    outer loop
      vertex   4.585786e+000 1.000000e+000 5.000000e+000
      vertex   5.028075e+000 1.000000e+000 4.896873e+000
      vertex   5.085786e+000 1.000000e+000 4.866025e+000
    endloop
  endfacet
  facet normal 0.000000e+000 1.000000e+000 0.000000e+000
    outer loop
      vertex   4.585786e+000 1.000000e+000 5.000000e+000
      vertex   4.968470e+000 1.000000e+000 4.923880e+000
      vertex   5.028075e+000 1.000000e+000 4.896873e+000
    endloop
  endfacet
  facet normal 0.000000e+000 1.000000e+000 0.000000e+000
    outer loop
      vertex   4.585786e+000 1.000000e+000 5.000000e+000
      vertex   4.907226e+000 1.000000e+000 4.946930e+000
      vertex   4.968470e+000 1.000000e+000 4.923880e+000
    endloop
  endfacet
  facet normal 0.000000e+000 1.000000e+000 0.000000e+000
    outer loop
      vertex   4.585786e+000 1.000000e+000 5.000000e+000
      vertex   4.844605e+000 1.000000e+000 4.965926e+000
      vertex   4.907226e+000 1.000000e+000 4.946930e+000
    endloop
  endfacet
  facet normal 0.000000e+000 1.000000e+000 0.000000e+000
    outer loop
      vertex   4.585786e+000 1.000000e+000 5.000000e+000
      vertex   4.780877e+000 1.000000e+000 4.980785e+000
      vertex   4.844605e+000 1.000000e+000 4.965926e+000
    endloop
  endfacet
  facet normal 0.000000e+000 1.000000e+000 0.000000e+000
    outer loop
      vertex   4.585786e+000 1.000000e+000 5.000000e+000
      vertex   4.716313e+000 1.000000e+000 4.991445e+000
      vertex   4.780877e+000 1.000000e+000 4.980785e+000
    endloop
  endfacet
  facet normal 0.000000e+000 1.000000e+000 0.000000e+000
    outer loop
      vertex   4.585786e+000 1.000000e+000 5.000000e+000
      vertex   4.651190e+000 1.000000e+000 4.997859e+000
      vertex   4.716313e+000 1.000000e+000 4.991445e+000
    endloop
  endfacet
  facet normal 0.000000e+000 1.000000e+000 0.000000e+000
    outer loop
      vertex   0.000000e+000 1.000000e+000 0.000000e+000
      vertex   1.748556e+000 1.000000e+000 4.371391e+000
      vertex   1.775127e+000 1.000000e+000 4.431932e+000
    endloop
  endfacet
  facet normal 0.000000e+000 1.000000e+000 0.000000e+000
    outer loop
      vertex   1.775127e+000 1.000000e+000 4.431932e+000
      vertex   1.805640e+000 1.000000e+000 4.490585e+000
      vertex   2.677033e+000 1.000000e+000 5.000000e+000
    endloop
  endfacet
  facet normal 0.000000e+000 1.000000e+000 -0.000000e+000
    outer loop
      vertex   2.677033e+000 1.000000e+000 5.000000e+000
      vertex   1.805640e+000 1.000000e+000 4.490585e+000
      vertex   1.839961e+000 1.000000e+000 4.547093e+000
    endloop
  endfacet
  facet normal -0.000000e+000 1.000000e+000 0.000000e+000
    outer loop
      vertex   1.877942e+000 1.000000e+000 4.601211e+000
      vertex   2.677033e+000 1.000000e+000 5.000000e+000
      vertex   1.839961e+000 1.000000e+000 4.547093e+000
    endloop
  endfacet
  facet normal 0.000000e+000 1.000000e+000 0.000000e+000
    outer loop
      vertex   1.877942e+000 1.000000e+000 4.601211e+000
      vertex   1.919416e+000 1.000000e+000 4.652700e+000
      vertex   2.677033e+000 1.000000e+000 5.000000e+000
    endloop
  endfacet
  facet normal 0.000000e+000 1.000000e+000 -0.000000e+000
    outer loop
      vertex   2.677033e+000 1.000000e+000 5.000000e+000
      vertex   1.919416e+000 1.000000e+000 4.652700e+000
      vertex   1.964202e+000 1.000000e+000 4.701336e+000
    endloop
  endfacet
  facet normal -0.000000e+000 1.000000e+000 0.000000e+000
    outer loop
      vertex   2.012103e+000 1.000000e+000 4.746906e+000
      vertex   2.677033e+000 1.000000e+000 5.000000e+000
      vertex   1.964202e+000 1.000000e+000 4.701336e+000
    endloop
  endfacet
  facet normal 0.000000e+000 1.000000e+000 0.000000e+000
    outer loop
      vertex   2.012103e+000 1.000000e+000 4.746906e+000
      vertex   2.062912e+000 1.000000e+000 4.789212e+000
      vertex   2.677033e+000 1.000000e+000 5.000000e+000
    endloop
  endfacet
  facet normal 0.000000e+000 1.000000e+000 -0.000000e+000
    outer loop
      vertex   2.677033e+000 1.000000e+000 5.000000e+000
      vertex   2.062912e+000 1.000000e+000 4.789212e+000
      vertex   2.116404e+000 1.000000e+000 4.828067e+000
    endloop
  endfacet
  facet normal -0.000000e+000 1.000000e+000 0.000000e+000
    outer loop
      vertex   2.172347e+000 1.000000e+000 4.863303e+000
      vertex   2.677033e+000 1.000000e+000 5.000000e+000
      vertex   2.116404e+000 1.000000e+000 4.828067e+000
    endloop
  endfacet
  facet normal 0.000000e+000 1.000000e+000 0.000000e+000
    outer loop
      vertex   2.172347e+000 1.000000e+000 4.863303e+000
      vertex   2.230497e+000 1.000000e+000 4.894766e+000
      vertex   2.677033e+000 1.000000e+000 5.000000e+000
    endloop
  endfacet
  facet normal 0.000000e+000 1.000000e+000 -0.000000e+000
    outer loop
      vertex   2.677033e+000 1.000000e+000 5.000000e+000
      vertex   2.230497e+000 1.000000e+000 4.894766e+000
      vertex   2.290598e+000 1.000000e+000 4.922317e+000
    endloop
  endfacet
  facet normal -0.000000e+000 1.000000e+000 0.000000e+000
    outer loop
      vertex   2.352388e+000 1.000000e+000 4.945836e+000
      vertex   2.677033e+000 1.000000e+000 5.000000e+000
      vertex   2.290598e+000 1.000000e+000 4.922317e+000
    endloop
  endfacet
  facet normal 0.000000e+000 1.000000e+000 0.000000e+000
    outer loop
      vertex   2.352388e+000 1.000000e+000 4.945836e+000
      vertex   2.415598e+000 1.000000e+000 4.965221e+000
      vertex   2.677033e+000 1.000000e+000 5.000000e+000
    endloop
  endfacet
  facet normal 0.000000e+000 1.000000e+000 -0.000000e+000
    outer loop
      vertex   2.677033e+000 1.000000e+000 5.000000e+000
      vertex   2.415598e+000 1.000000e+000 4.965221e+000
      vertex   2.479950e+000 1.000000e+000 4.980387e+000
    endloop
  endfacet
  facet normal -0.000000e+000 1.000000e+000 0.000000e+000
    outer loop
      vertex   2.545164e+000 1.000000e+000 4.991267e+000
      vertex   2.677033e+000 1.000000e+000 5.000000e+000
      vertex   2.479950e+000 1.000000e+000 4.980387e+000
    endloop
  endfacet
  facet normal 0.000000e+000 1.000000e+000 0.000000e+000
    outer loop
      vertex   2.545164e+000 1.000000e+000 4.991267e+000
      vertex   2.610954e+000 1.000000e+000 4.997814e+000
      vertex   2.677033e+000 1.000000e+000 5.000000e+000
    endloop
  endfacet
endsolid
